<svg width="77" height="78" viewBox="0 0 77 78" fill="none" xmlns="http://www.w3.org/2000/svg">
<ellipse cx="38.5" cy="39" rx="38.5" ry="39" fill="#D9D9D9"/>
<path d="M58 38.5567C58.0067 42.9232 56.5477 47.1657 53.8567 50.6044C51.1657 54.0431 47.3984 56.4792 43.1583 57.5223C38.9182 58.5654 34.4506 58.1552 30.4714 56.3573C26.4921 54.5595 23.2314 51.4782 21.2116 47.6069C19.1918 43.7356 18.5298 39.2984 19.3316 35.0061C20.1334 30.7138 22.3527 26.8149 25.6338 23.9338C28.915 21.0528 33.0682 19.3563 37.4282 19.1163C41.7881 18.8763 46.1024 20.1066 49.68 22.61L49.4417 21.9167C49.2578 21.3564 49.304 20.7461 49.5701 20.2199C49.8363 19.6937 50.3006 19.2948 50.8608 19.1109C51.4211 18.927 52.0315 18.9732 52.5577 19.2393C53.0839 19.5055 53.4828 19.9698 53.6667 20.53L55.8333 27.03C55.9408 27.3559 55.9693 27.7026 55.9166 28.0416C55.8638 28.3806 55.7313 28.7022 55.53 28.98C55.3203 29.2754 55.0398 29.5135 54.7143 29.6724C54.3888 29.8314 54.0286 29.9062 53.6667 29.89H47.1667C46.592 29.89 46.0409 29.6618 45.6346 29.2554C45.2283 28.8491 45 28.298 45 27.7234C45.0078 27.2648 45.161 26.8205 45.4374 26.4545C45.7139 26.0885 46.0994 25.8197 46.5383 25.6867C43.6882 23.9053 40.327 23.1212 36.9828 23.4574C33.6386 23.7936 30.5008 25.2312 28.0623 27.5443C25.6238 29.8573 24.0227 32.9149 23.5105 36.2367C22.9983 39.5585 23.604 42.9563 25.2325 45.8965C26.861 48.8367 29.42 51.1527 32.5076 52.4806C35.5951 53.8086 39.0364 54.0734 42.2908 53.2333C45.5451 52.3932 48.4283 50.496 50.4874 47.8395C52.5464 45.183 53.6647 41.9178 53.6667 38.5567C53.6667 37.9821 53.8949 37.431 54.3013 37.0246C54.7076 36.6183 55.2587 36.39 55.8333 36.39C56.408 36.39 56.9591 36.6183 57.3654 37.0246C57.7717 37.431 58 37.9821 58 38.5567Z" fill="black"/>
</svg>
